# xmcd CD database file
#
# Track frame offsets:
#	150
#	23011
#	43526
#	53357
#	78902
#	92420
#	110181
#	123055
#	145448
#	157155
#	178581
#	194119
#	216022
#	228141
#	252913
#	268177
#	297329
#	315702
#
# Disc length: 4469 seconds
#
# Revision: 0
# Processed by: cddbd v1.4PL0 Copyright (c) Steve Scherf et al.
# Submitted via: CDex 1.50
#
DISCID=fd117312
DTITLE=Ulster Youth Jazz Orchestra - Right Boss!
DYEAR=2003
DGENRE=Jazz
TTITLE0=The Chicken
TTITLE1=I Wish
TTITLE2=Blue Skies
TTITLE3=Desafinado
TTITLE4=I've Got You Under My Skin
TTITLE5=Lisette
TTITLE6=The Girl From Ipanema
TTITLE7=Lough'n'Load
TTITLE8=The Lady Is A Tramp
TTITLE9=WIllowcrest
TTITLE10=Moonlight In Vermont
TTITLE11=Samba Dees Godda Do It
TTITLE12=How Sweet It Is (To Be Loved By You)
TTITLE13=Ozone Friendly
TTITLE14=Theme From Sesame Street
TTITLE15=Song For Dermod
TTITLE16=Wish You Were Here
TTITLE17=Louisiana Bebop
EXTD=YEAR: 2003
EXTT0=
EXTT1=
EXTT2=
EXTT3=
EXTT4=
EXTT5=
EXTT6=
EXTT7=
EXTT8=
EXTT9=
EXTT10=
EXTT11=
EXTT12=
EXTT13=
EXTT14=
EXTT15=
EXTT16=
EXTT17=
PLAYORDER=
